# xmcd
#
# Track frame offsets:
#	150
#	11447
#	20522
#	29754
#	39160
#	55170
#	70644
#	85375
#	101619
#	110663
#	119973
#	133172
#	147570
#	156551
#	170728
#	183363
#	194279
#	210832
#	223183
#
# Disc length: 3128 seconds
#
# Revision: 0
# Processed by: cddbd v1.5.1PL0 Copyright (c) Steve Scherf et al.
# Submitted via: EasyCDDAExtractor 4.5.0.2
#
DISCID=200c3613
DTITLE=диажояои - тсижтетекиа ле йкаяима
DYEAR=1900
DGENRE=меодглотийа
TTITLE0=апойкеистийа
TTITLE1=гтам омеияо 
TTITLE2=л' ацапас с'ацапы
TTITLE3=етси хекы ма л' ацапас
TTITLE4=поу цуямас
TTITLE5=с' ацапы ма лоукес
TTITLE6=хулалаи
TTITLE7=ти фгтас
TTITLE8=яацисе г йаядиа лоу
TTITLE9=евы паяапомо пийяо
TTITLE10=сам ма лаи немг
TTITLE11=ацапас йаядиа лоу
TTITLE12=цуяма нама
TTITLE13=хекы ма цекас
TTITLE14=алаятиес
TTITLE15=ле дийасес
TTITLE16=еяытас йеяаумобокос
TTITLE17=жытиес
TTITLE18=тяекаимолаи
EXTD=
EXTT0=
EXTT1=
EXTT2=
EXTT3=
EXTT4=
EXTT5=
EXTT6=
EXTT7=
EXTT8=
EXTT9=
EXTT10=
EXTT11=
EXTT12=
EXTT13=
EXTT14=
EXTT15=
EXTT16=
EXTT17=
EXTT18=
PLAYORDER=
